<mxfile host="app.diagrams.net" modified="2023-08-20T15:25:49.514Z" agent="Mozilla/5.0 (X11; Linux x86_64) AppleWebKit/537.36 (KHTML, like Gecko) Chrome/115.0.0.0 Safari/537.36" etag="QBg1e10d-iOc1oCEcW06" version="21.6.8" type="device">
  <diagram name="Page-1" id="uchF2B7UZ54g5w5sWf7a">
    <mxGraphModel dx="989" dy="572" grid="0" gridSize="10" guides="1" tooltips="1" connect="1" arrows="1" fold="1" page="1" pageScale="1" pageWidth="850" pageHeight="1100" background="#ffffff" math="0" shadow="0">
      <root>
        <mxCell id="0" />
        <mxCell id="1" parent="0" />
        <mxCell id="4bdUU2ATz_cRctsZ7Gmq-34" value="" style="rounded=1;whiteSpace=wrap;html=1;strokeWidth=2;fillColor=none;" vertex="1" parent="1">
          <mxGeometry x="124" y="309" width="188.5" height="256" as="geometry" />
        </mxCell>
        <mxCell id="DELOaJZ5ITBAGtkzzFMi-8" value="" style="rounded=1;whiteSpace=wrap;html=1;strokeWidth=2;fillColor=#FFE6CC;" parent="1" vertex="1">
          <mxGeometry x="174" y="902.9300000000001" width="104" height="43" as="geometry" />
        </mxCell>
        <mxCell id="DELOaJZ5ITBAGtkzzFMi-9" value="&lt;font style=&quot;font-size: 14px;&quot;&gt;&lt;b style=&quot;font-size: 14px;&quot;&gt;Inputs&lt;/b&gt;&lt;/font&gt;" style="text;html=1;strokeColor=none;fillColor=none;align=center;verticalAlign=middle;whiteSpace=wrap;rounded=0;fontSize=14;" parent="1" vertex="1">
          <mxGeometry x="196" y="1060" width="60" height="30" as="geometry" />
        </mxCell>
        <mxCell id="DELOaJZ5ITBAGtkzzFMi-12" value="" style="edgeStyle=elbowEdgeStyle;elbow=vertical;endArrow=classic;html=1;curved=0;rounded=0;endSize=8;startSize=8;entryX=0.5;entryY=1;entryDx=0;entryDy=0;exitX=0.5;exitY=0;exitDx=0;exitDy=0;" parent="1" source="DELOaJZ5ITBAGtkzzFMi-9" target="4bdUU2ATz_cRctsZ7Gmq-2" edge="1">
          <mxGeometry width="50" height="50" relative="1" as="geometry">
            <mxPoint x="289" y="1059" as="sourcePoint" />
            <mxPoint x="226" y="1061" as="targetPoint" />
          </mxGeometry>
        </mxCell>
        <mxCell id="DELOaJZ5ITBAGtkzzFMi-13" value="&lt;div style=&quot;&quot;&gt;&lt;span style=&quot;font-size: 14px; background-color: initial;&quot;&gt;Pointwise Convolution&lt;/span&gt;&lt;/div&gt;" style="text;html=1;strokeColor=none;fillColor=none;align=center;verticalAlign=middle;whiteSpace=wrap;rounded=0;" parent="1" vertex="1">
          <mxGeometry x="196" y="909.4300000000001" width="60" height="30" as="geometry" />
        </mxCell>
        <mxCell id="DELOaJZ5ITBAGtkzzFMi-14" value="" style="rounded=1;whiteSpace=wrap;html=1;fillColor=#FFE6CC;strokeWidth=2;" parent="1" vertex="1">
          <mxGeometry x="174" y="830.9300000000001" width="104" height="43" as="geometry" />
        </mxCell>
        <mxCell id="DELOaJZ5ITBAGtkzzFMi-15" value="&lt;font style=&quot;font-size: 14px;&quot;&gt;LayerNorm&lt;/font&gt;" style="text;html=1;strokeColor=none;fillColor=none;align=center;verticalAlign=middle;whiteSpace=wrap;rounded=0;" parent="1" vertex="1">
          <mxGeometry x="196" y="837.4300000000001" width="60" height="30" as="geometry" />
        </mxCell>
        <mxCell id="DELOaJZ5ITBAGtkzzFMi-17" value="" style="edgeStyle=elbowEdgeStyle;elbow=horizontal;endArrow=classic;html=1;curved=0;rounded=0;endSize=8;startSize=8;exitX=0.5;exitY=0;exitDx=0;exitDy=0;entryX=0.5;entryY=1;entryDx=0;entryDy=0;" parent="1" source="DELOaJZ5ITBAGtkzzFMi-8" target="DELOaJZ5ITBAGtkzzFMi-14" edge="1">
          <mxGeometry width="50" height="50" relative="1" as="geometry">
            <mxPoint x="355" y="801.9300000000001" as="sourcePoint" />
            <mxPoint x="370" y="862.9300000000001" as="targetPoint" />
          </mxGeometry>
        </mxCell>
        <mxCell id="DELOaJZ5ITBAGtkzzFMi-18" value="" style="rounded=1;whiteSpace=wrap;html=1;fillColor=#FFE6CC;strokeWidth=2;" parent="1" vertex="1">
          <mxGeometry x="174" y="757.9300000000001" width="104" height="43" as="geometry" />
        </mxCell>
        <mxCell id="DELOaJZ5ITBAGtkzzFMi-19" value="&lt;font style=&quot;font-size: 14px;&quot;&gt;Feed&lt;br&gt;Forward&lt;/font&gt;" style="text;html=1;strokeColor=none;fillColor=none;align=center;verticalAlign=middle;whiteSpace=wrap;rounded=0;" parent="1" vertex="1">
          <mxGeometry x="196" y="764.4300000000001" width="60" height="30" as="geometry" />
        </mxCell>
        <mxCell id="DELOaJZ5ITBAGtkzzFMi-20" value="" style="edgeStyle=elbowEdgeStyle;elbow=vertical;endArrow=classic;html=1;curved=0;rounded=0;endSize=8;startSize=8;exitX=0.5;exitY=0;exitDx=0;exitDy=0;entryX=0.5;entryY=1;entryDx=0;entryDy=0;" parent="1" source="DELOaJZ5ITBAGtkzzFMi-14" target="DELOaJZ5ITBAGtkzzFMi-18" edge="1">
          <mxGeometry width="50" height="50" relative="1" as="geometry">
            <mxPoint x="355" y="938.9300000000001" as="sourcePoint" />
            <mxPoint x="405" y="888.9300000000001" as="targetPoint" />
          </mxGeometry>
        </mxCell>
        <mxCell id="DELOaJZ5ITBAGtkzzFMi-21" value="" style="rounded=1;whiteSpace=wrap;html=1;fillColor=#FFE6CC;strokeWidth=2;" parent="1" vertex="1">
          <mxGeometry x="174" y="681.9300000000001" width="104" height="43" as="geometry" />
        </mxCell>
        <mxCell id="DELOaJZ5ITBAGtkzzFMi-22" value="&lt;font style=&quot;font-size: 14px;&quot;&gt;Convolution&lt;br&gt;Module&lt;/font&gt;" style="text;html=1;strokeColor=none;fillColor=none;align=center;verticalAlign=middle;whiteSpace=wrap;rounded=0;" parent="1" vertex="1">
          <mxGeometry x="196" y="688.4300000000001" width="60" height="30" as="geometry" />
        </mxCell>
        <mxCell id="DELOaJZ5ITBAGtkzzFMi-23" value="" style="edgeStyle=elbowEdgeStyle;elbow=vertical;endArrow=classic;html=1;curved=0;rounded=0;endSize=8;startSize=8;exitX=0.5;exitY=0;exitDx=0;exitDy=0;entryX=0.5;entryY=1;entryDx=0;entryDy=0;" parent="1" source="DELOaJZ5ITBAGtkzzFMi-18" target="DELOaJZ5ITBAGtkzzFMi-21" edge="1">
          <mxGeometry width="50" height="50" relative="1" as="geometry">
            <mxPoint x="356" y="770.9300000000001" as="sourcePoint" />
            <mxPoint x="339" y="752.9300000000001" as="targetPoint" />
          </mxGeometry>
        </mxCell>
        <mxCell id="DELOaJZ5ITBAGtkzzFMi-24" value="" style="shape=curlyBracket;whiteSpace=wrap;html=1;rounded=1;labelPosition=left;verticalLabelPosition=middle;align=right;verticalAlign=middle;" parent="1" vertex="1">
          <mxGeometry x="127" y="681.9300000000001" width="20" height="264" as="geometry" />
        </mxCell>
        <mxCell id="DELOaJZ5ITBAGtkzzFMi-25" value="&lt;font style=&quot;font-size: 14px;&quot;&gt;Feature Extraction&lt;/font&gt;" style="text;html=1;strokeColor=none;fillColor=none;align=center;verticalAlign=middle;whiteSpace=wrap;rounded=0;rotation=0;" parent="1" vertex="1">
          <mxGeometry x="59" y="786.4300000000001" width="68" height="55" as="geometry" />
        </mxCell>
        <mxCell id="DELOaJZ5ITBAGtkzzFMi-34" value="" style="group" parent="1" vertex="1" connectable="0">
          <mxGeometry x="130" y="609.08" width="116.00000000000003" height="40.85" as="geometry" />
        </mxCell>
        <mxCell id="DELOaJZ5ITBAGtkzzFMi-29" value="" style="group" parent="DELOaJZ5ITBAGtkzzFMi-34" vertex="1" connectable="0">
          <mxGeometry width="40.845070422535215" height="40.85" as="geometry" />
        </mxCell>
        <mxCell id="DELOaJZ5ITBAGtkzzFMi-27" value="" style="ellipse;whiteSpace=wrap;html=1;aspect=fixed;" parent="DELOaJZ5ITBAGtkzzFMi-29" vertex="1">
          <mxGeometry width="40.845070422535215" height="40.845070422535215" as="geometry" />
        </mxCell>
        <mxCell id="DELOaJZ5ITBAGtkzzFMi-28" value="" style="curved=1;endArrow=none;html=1;rounded=0;entryX=0.938;entryY=0.238;entryDx=0;entryDy=0;entryPerimeter=0;exitX=0.1;exitY=0.775;exitDx=0;exitDy=0;exitPerimeter=0;endFill=0;" parent="DELOaJZ5ITBAGtkzzFMi-29" source="DELOaJZ5ITBAGtkzzFMi-27" target="DELOaJZ5ITBAGtkzzFMi-27" edge="1">
          <mxGeometry width="50" height="50" relative="1" as="geometry">
            <mxPoint x="7.658450704225354" y="33.190625000000004" as="sourcePoint" />
            <mxPoint x="33.18661971830986" y="7.659375000000001" as="targetPoint" />
            <Array as="points">
              <mxPoint x="33.18661971830986" y="33.190625000000004" />
              <mxPoint x="7.658450704225354" y="7.659375000000001" />
            </Array>
          </mxGeometry>
        </mxCell>
        <mxCell id="DELOaJZ5ITBAGtkzzFMi-32" value="" style="ellipse;whiteSpace=wrap;html=1;aspect=fixed;" parent="DELOaJZ5ITBAGtkzzFMi-34" vertex="1">
          <mxGeometry x="75.15492957746478" width="40.845070422535215" height="40.845070422535215" as="geometry" />
        </mxCell>
        <mxCell id="DELOaJZ5ITBAGtkzzFMi-33" value="" style="shape=umlDestroy;whiteSpace=wrap;html=1;strokeWidth=3;targetShapes=umlLifeline;rotation=45;" parent="DELOaJZ5ITBAGtkzzFMi-34" vertex="1">
          <mxGeometry x="86.59154929577466" y="11.438" width="17.971830985915492" height="17.974" as="geometry" />
        </mxCell>
        <mxCell id="DELOaJZ5ITBAGtkzzFMi-37" value="" style="edgeStyle=elbowEdgeStyle;elbow=vertical;endArrow=classic;html=1;curved=0;rounded=0;endSize=8;startSize=8;exitX=1;exitY=0.5;exitDx=0;exitDy=0;entryX=0;entryY=0.5;entryDx=0;entryDy=0;" parent="DELOaJZ5ITBAGtkzzFMi-34" source="DELOaJZ5ITBAGtkzzFMi-27" target="DELOaJZ5ITBAGtkzzFMi-32" edge="1">
          <mxGeometry width="50" height="50" relative="1" as="geometry">
            <mxPoint x="225" y="186.85" as="sourcePoint" />
            <mxPoint x="275" y="136.85" as="targetPoint" />
          </mxGeometry>
        </mxCell>
        <mxCell id="DELOaJZ5ITBAGtkzzFMi-35" value="&lt;font style=&quot;font-size: 14px;&quot;&gt;Positional Encoding&lt;/font&gt;" style="text;html=1;strokeColor=none;fillColor=none;align=center;verticalAlign=middle;whiteSpace=wrap;rounded=0;rotation=0;" parent="1" vertex="1">
          <mxGeometry x="56" y="602" width="68" height="55" as="geometry" />
        </mxCell>
        <mxCell id="DELOaJZ5ITBAGtkzzFMi-36" value="" style="edgeStyle=elbowEdgeStyle;elbow=vertical;endArrow=classic;html=1;curved=0;rounded=0;endSize=8;startSize=8;exitX=0.5;exitY=0;exitDx=0;exitDy=0;entryX=0.5;entryY=1;entryDx=0;entryDy=0;" parent="1" source="DELOaJZ5ITBAGtkzzFMi-21" target="DELOaJZ5ITBAGtkzzFMi-32" edge="1">
          <mxGeometry width="50" height="50" relative="1" as="geometry">
            <mxPoint x="355" y="795.9300000000001" as="sourcePoint" />
            <mxPoint x="405" y="745.9300000000001" as="targetPoint" />
          </mxGeometry>
        </mxCell>
        <mxCell id="4bdUU2ATz_cRctsZ7Gmq-1" value="&lt;b&gt;Sound Waveform&lt;/b&gt;" style="text;html=1;strokeColor=none;fillColor=none;align=center;verticalAlign=middle;whiteSpace=wrap;rounded=0;fontSize=14;" vertex="1" parent="1">
          <mxGeometry x="393" y="898.0000000000001" width="60" height="30" as="geometry" />
        </mxCell>
        <mxCell id="4bdUU2ATz_cRctsZ7Gmq-2" value="&lt;font style=&quot;font-size: 14px;&quot;&gt;Continuous Wavelet Transform&lt;/font&gt;" style="rounded=1;whiteSpace=wrap;html=1;strokeWidth=2;fillColor=#CCFFFF;" vertex="1" parent="1">
          <mxGeometry x="174" y="976" width="104" height="58" as="geometry" />
        </mxCell>
        <mxCell id="4bdUU2ATz_cRctsZ7Gmq-3" value="" style="edgeStyle=elbowEdgeStyle;elbow=vertical;endArrow=classic;html=1;curved=0;rounded=0;endSize=8;startSize=8;exitX=0.5;exitY=0;exitDx=0;exitDy=0;entryX=0.5;entryY=1;entryDx=0;entryDy=0;" edge="1" parent="1" source="4bdUU2ATz_cRctsZ7Gmq-2" target="DELOaJZ5ITBAGtkzzFMi-8">
          <mxGeometry width="50" height="50" relative="1" as="geometry">
            <mxPoint x="362" y="797" as="sourcePoint" />
            <mxPoint x="287" y="956" as="targetPoint" />
          </mxGeometry>
        </mxCell>
        <mxCell id="4bdUU2ATz_cRctsZ7Gmq-5" value="" style="rounded=1;whiteSpace=wrap;html=1;strokeWidth=2;fillColor=#CCFFCC;" vertex="1" parent="1">
          <mxGeometry x="371" y="829.0000000000001" width="104" height="43" as="geometry" />
        </mxCell>
        <mxCell id="4bdUU2ATz_cRctsZ7Gmq-6" value="&lt;font style=&quot;font-size: 14px; font-weight: normal;&quot;&gt;Waveform&lt;br style=&quot;font-size: 14px;&quot;&gt;Augmentation&lt;/font&gt;" style="text;strokeColor=none;fillColor=none;html=1;fontSize=14;fontStyle=1;verticalAlign=middle;align=center;spacing=2;" vertex="1" parent="1">
          <mxGeometry x="373" y="835.97" width="100" height="29.07" as="geometry" />
        </mxCell>
        <mxCell id="4bdUU2ATz_cRctsZ7Gmq-7" value="" style="edgeStyle=elbowEdgeStyle;elbow=vertical;endArrow=classic;html=1;curved=0;rounded=0;endSize=8;startSize=8;exitX=0.5;exitY=0;exitDx=0;exitDy=0;entryX=0.5;entryY=1;entryDx=0;entryDy=0;" edge="1" parent="1" source="4bdUU2ATz_cRctsZ7Gmq-1" target="4bdUU2ATz_cRctsZ7Gmq-5">
          <mxGeometry width="50" height="50" relative="1" as="geometry">
            <mxPoint x="394" y="723.07" as="sourcePoint" />
            <mxPoint x="529" y="904.07" as="targetPoint" />
          </mxGeometry>
        </mxCell>
        <mxCell id="4bdUU2ATz_cRctsZ7Gmq-8" value="&lt;font style=&quot;font-size: 14px;&quot;&gt;Spectrogram&lt;/font&gt;" style="rounded=1;whiteSpace=wrap;html=1;strokeWidth=2;fillColor=#CCFFFF;" vertex="1" parent="1">
          <mxGeometry x="371" y="754.07" width="104" height="43" as="geometry" />
        </mxCell>
        <mxCell id="4bdUU2ATz_cRctsZ7Gmq-13" value="" style="edgeStyle=elbowEdgeStyle;elbow=vertical;endArrow=classic;html=1;curved=0;rounded=0;endSize=8;startSize=8;exitX=0.5;exitY=0;exitDx=0;exitDy=0;entryX=0.5;entryY=1;entryDx=0;entryDy=0;" edge="1" parent="1" source="4bdUU2ATz_cRctsZ7Gmq-5" target="4bdUU2ATz_cRctsZ7Gmq-8">
          <mxGeometry width="50" height="50" relative="1" as="geometry">
            <mxPoint x="632" y="928.0000000000001" as="sourcePoint" />
            <mxPoint x="495" y="807.07" as="targetPoint" />
          </mxGeometry>
        </mxCell>
        <mxCell id="4bdUU2ATz_cRctsZ7Gmq-14" value="&lt;font style=&quot;font-size: 14px;&quot;&gt;PCA&lt;/font&gt;" style="rounded=1;whiteSpace=wrap;html=1;strokeWidth=2;fillColor=#E5CCFF;" vertex="1" parent="1">
          <mxGeometry x="371" y="684.0000000000001" width="104" height="43" as="geometry" />
        </mxCell>
        <mxCell id="4bdUU2ATz_cRctsZ7Gmq-16" value="" style="edgeStyle=elbowEdgeStyle;elbow=vertical;endArrow=classic;html=1;curved=0;rounded=0;endSize=8;startSize=8;exitX=0.5;exitY=0;exitDx=0;exitDy=0;entryX=0.5;entryY=1;entryDx=0;entryDy=0;" edge="1" parent="1" source="4bdUU2ATz_cRctsZ7Gmq-8" target="4bdUU2ATz_cRctsZ7Gmq-14">
          <mxGeometry width="50" height="50" relative="1" as="geometry">
            <mxPoint x="648" y="767.5000000000001" as="sourcePoint" />
            <mxPoint x="698" y="717.5000000000001" as="targetPoint" />
          </mxGeometry>
        </mxCell>
        <mxCell id="4bdUU2ATz_cRctsZ7Gmq-17" value="" style="group" vertex="1" connectable="0" parent="1">
          <mxGeometry x="482" y="613.07" width="116" height="47.92999999999995" as="geometry" />
        </mxCell>
        <mxCell id="4bdUU2ATz_cRctsZ7Gmq-18" value="" style="group" vertex="1" connectable="0" parent="4bdUU2ATz_cRctsZ7Gmq-17">
          <mxGeometry width="40.845070422535215" height="40.85" as="geometry" />
        </mxCell>
        <mxCell id="4bdUU2ATz_cRctsZ7Gmq-19" value="" style="ellipse;whiteSpace=wrap;html=1;aspect=fixed;" vertex="1" parent="4bdUU2ATz_cRctsZ7Gmq-18">
          <mxGeometry width="40.845070422535215" height="40.845070422535215" as="geometry" />
        </mxCell>
        <mxCell id="4bdUU2ATz_cRctsZ7Gmq-20" value="" style="curved=1;endArrow=none;html=1;rounded=0;entryX=0.938;entryY=0.238;entryDx=0;entryDy=0;entryPerimeter=0;exitX=0.1;exitY=0.775;exitDx=0;exitDy=0;exitPerimeter=0;endFill=0;" edge="1" parent="4bdUU2ATz_cRctsZ7Gmq-18" source="4bdUU2ATz_cRctsZ7Gmq-19" target="4bdUU2ATz_cRctsZ7Gmq-19">
          <mxGeometry width="50" height="50" relative="1" as="geometry">
            <mxPoint x="7.658450704225354" y="33.190625000000004" as="sourcePoint" />
            <mxPoint x="33.18661971830986" y="7.659375000000001" as="targetPoint" />
            <Array as="points">
              <mxPoint x="33.18661971830986" y="33.190625000000004" />
              <mxPoint x="7.658450704225354" y="7.659375000000001" />
            </Array>
          </mxGeometry>
        </mxCell>
        <mxCell id="4bdUU2ATz_cRctsZ7Gmq-27" value="&lt;font style=&quot;font-size: 14px;&quot;&gt;Positional Encoding&lt;/font&gt;" style="text;html=1;strokeColor=none;fillColor=none;align=center;verticalAlign=middle;whiteSpace=wrap;rounded=0;rotation=0;" vertex="1" parent="4bdUU2ATz_cRctsZ7Gmq-17">
          <mxGeometry x="48" y="-7.07000000000005" width="68" height="55" as="geometry" />
        </mxCell>
        <mxCell id="4bdUU2ATz_cRctsZ7Gmq-24" value="" style="group" vertex="1" connectable="0" parent="1">
          <mxGeometry x="401.0049295774648" y="613.07" width="40.84507042253523" height="40.84507042253517" as="geometry" />
        </mxCell>
        <mxCell id="4bdUU2ATz_cRctsZ7Gmq-21" value="" style="ellipse;whiteSpace=wrap;html=1;aspect=fixed;" vertex="1" parent="4bdUU2ATz_cRctsZ7Gmq-24">
          <mxGeometry width="40.845070422535215" height="40.845070422535215" as="geometry" />
        </mxCell>
        <mxCell id="4bdUU2ATz_cRctsZ7Gmq-22" value="" style="shape=umlDestroy;whiteSpace=wrap;html=1;strokeWidth=3;targetShapes=umlLifeline;rotation=45;" vertex="1" parent="4bdUU2ATz_cRctsZ7Gmq-24">
          <mxGeometry x="11.436619718309828" y="11.437999999999988" width="17.971830985915492" height="17.974" as="geometry" />
        </mxCell>
        <mxCell id="4bdUU2ATz_cRctsZ7Gmq-25" value="" style="edgeStyle=elbowEdgeStyle;elbow=horizontal;endArrow=classic;html=1;curved=0;rounded=0;endSize=8;startSize=8;exitX=0.5;exitY=0;exitDx=0;exitDy=0;entryX=0.5;entryY=1;entryDx=0;entryDy=0;" edge="1" parent="1" source="4bdUU2ATz_cRctsZ7Gmq-14" target="4bdUU2ATz_cRctsZ7Gmq-21">
          <mxGeometry width="50" height="50" relative="1" as="geometry">
            <mxPoint x="577" y="743.07" as="sourcePoint" />
            <mxPoint x="508" y="675.07" as="targetPoint" />
          </mxGeometry>
        </mxCell>
        <mxCell id="4bdUU2ATz_cRctsZ7Gmq-26" value="" style="edgeStyle=elbowEdgeStyle;elbow=horizontal;endArrow=classic;html=1;curved=0;rounded=0;endSize=8;startSize=8;exitX=0;exitY=0.5;exitDx=0;exitDy=0;entryX=1;entryY=0.5;entryDx=0;entryDy=0;" edge="1" parent="1" source="4bdUU2ATz_cRctsZ7Gmq-19" target="4bdUU2ATz_cRctsZ7Gmq-21">
          <mxGeometry width="50" height="50" relative="1" as="geometry">
            <mxPoint x="432" y="533.07" as="sourcePoint" />
            <mxPoint x="482" y="483.07" as="targetPoint" />
          </mxGeometry>
        </mxCell>
        <mxCell id="4bdUU2ATz_cRctsZ7Gmq-31" value="&lt;font style=&quot;font-size: 14px;&quot;&gt;Multi-Head&lt;br&gt;Attention&lt;/font&gt;" style="rounded=1;whiteSpace=wrap;html=1;fillColor=#FFCC99;strokeWidth=2;" vertex="1" parent="1">
          <mxGeometry x="174" y="483.00000000000006" width="104" height="43" as="geometry" />
        </mxCell>
        <mxCell id="4bdUU2ATz_cRctsZ7Gmq-32" value="&lt;font style=&quot;font-size: 14px;&quot;&gt;Add &amp;amp; Norm&lt;/font&gt;" style="rounded=1;whiteSpace=wrap;html=1;fillColor=#FFFF99;strokeWidth=2;" vertex="1" parent="1">
          <mxGeometry x="174" y="440" width="104" height="29" as="geometry" />
        </mxCell>
        <mxCell id="4bdUU2ATz_cRctsZ7Gmq-33" value="" style="edgeStyle=elbowEdgeStyle;elbow=vertical;endArrow=none;html=1;curved=0;rounded=0;endSize=8;startSize=8;endFill=0;exitX=0.5;exitY=0;exitDx=0;exitDy=0;entryX=0.5;entryY=1;entryDx=0;entryDy=0;" edge="1" parent="1" source="4bdUU2ATz_cRctsZ7Gmq-31" target="4bdUU2ATz_cRctsZ7Gmq-32">
          <mxGeometry width="50" height="50" relative="1" as="geometry">
            <mxPoint x="547" y="432" as="sourcePoint" />
            <mxPoint x="746" y="328" as="targetPoint" />
            <Array as="points" />
          </mxGeometry>
        </mxCell>
        <mxCell id="4bdUU2ATz_cRctsZ7Gmq-38" value="" style="edgeStyle=segmentEdgeStyle;endArrow=classic;html=1;curved=0;rounded=0;endSize=8;startSize=8;exitX=0.5;exitY=1;exitDx=0;exitDy=0;entryX=0.5;entryY=1;entryDx=0;entryDy=0;" edge="1" parent="1" source="4bdUU2ATz_cRctsZ7Gmq-34" target="4bdUU2ATz_cRctsZ7Gmq-31">
          <mxGeometry width="50" height="50" relative="1" as="geometry">
            <mxPoint x="176" y="525" as="sourcePoint" />
            <mxPoint x="226" y="527" as="targetPoint" />
          </mxGeometry>
        </mxCell>
        <mxCell id="4bdUU2ATz_cRctsZ7Gmq-39" value="" style="edgeStyle=segmentEdgeStyle;endArrow=classic;html=1;rounded=1;endSize=8;startSize=8;entryX=0.702;entryY=1.028;entryDx=0;entryDy=0;entryPerimeter=0;" edge="1" parent="1" target="4bdUU2ATz_cRctsZ7Gmq-31">
          <mxGeometry width="50" height="50" relative="1" as="geometry">
            <mxPoint x="226" y="565" as="sourcePoint" />
            <mxPoint x="252" y="534" as="targetPoint" />
            <Array as="points">
              <mxPoint x="226" y="549" />
              <mxPoint x="248" y="549" />
              <mxPoint x="248" y="527" />
            </Array>
          </mxGeometry>
        </mxCell>
        <mxCell id="4bdUU2ATz_cRctsZ7Gmq-40" value="" style="edgeStyle=segmentEdgeStyle;endArrow=classic;html=1;rounded=1;endSize=8;startSize=8;exitX=0.541;exitY=0.997;exitDx=0;exitDy=0;exitPerimeter=0;" edge="1" parent="1">
          <mxGeometry width="50" height="50" relative="1" as="geometry">
            <mxPoint x="225.9785" y="565.002" as="sourcePoint" />
            <mxPoint x="203" y="527" as="targetPoint" />
            <Array as="points">
              <mxPoint x="226" y="548" />
              <mxPoint x="203" y="548" />
            </Array>
          </mxGeometry>
        </mxCell>
        <mxCell id="4bdUU2ATz_cRctsZ7Gmq-41" value="" style="edgeStyle=segmentEdgeStyle;endArrow=classic;html=1;rounded=1;endSize=8;startSize=8;" edge="1" parent="1" target="4bdUU2ATz_cRctsZ7Gmq-32">
          <mxGeometry width="50" height="50" relative="1" as="geometry">
            <mxPoint x="226" y="558" as="sourcePoint" />
            <mxPoint x="214" y="476" as="targetPoint" />
            <Array as="points">
              <mxPoint x="157" y="558" />
              <mxPoint x="157" y="454" />
            </Array>
          </mxGeometry>
        </mxCell>
        <mxCell id="4bdUU2ATz_cRctsZ7Gmq-42" value="&lt;span style=&quot;font-size: 14px;&quot;&gt;Feed Forward&lt;/span&gt;" style="rounded=1;whiteSpace=wrap;html=1;fillColor=#CCE5FF;strokeWidth=2;" vertex="1" parent="1">
          <mxGeometry x="174" y="362.00000000000006" width="104" height="43" as="geometry" />
        </mxCell>
        <mxCell id="4bdUU2ATz_cRctsZ7Gmq-43" value="&lt;font style=&quot;font-size: 14px;&quot;&gt;Add &amp;amp; Norm&lt;/font&gt;" style="rounded=1;whiteSpace=wrap;html=1;fillColor=#FFFF99;strokeWidth=2;" vertex="1" parent="1">
          <mxGeometry x="174" y="319" width="104" height="29" as="geometry" />
        </mxCell>
        <mxCell id="4bdUU2ATz_cRctsZ7Gmq-44" value="" style="edgeStyle=elbowEdgeStyle;elbow=horizontal;endArrow=classic;html=1;curved=0;rounded=0;endSize=8;startSize=8;exitX=0.5;exitY=0;exitDx=0;exitDy=0;entryX=0.5;entryY=1;entryDx=0;entryDy=0;" edge="1" parent="1" source="4bdUU2ATz_cRctsZ7Gmq-32" target="4bdUU2ATz_cRctsZ7Gmq-42">
          <mxGeometry width="50" height="50" relative="1" as="geometry">
            <mxPoint x="228" y="421" as="sourcePoint" />
            <mxPoint x="278" y="371" as="targetPoint" />
          </mxGeometry>
        </mxCell>
        <mxCell id="4bdUU2ATz_cRctsZ7Gmq-45" value="" style="endArrow=none;html=1;rounded=0;exitX=0.5;exitY=0;exitDx=0;exitDy=0;entryX=0.5;entryY=1;entryDx=0;entryDy=0;" edge="1" parent="1" source="4bdUU2ATz_cRctsZ7Gmq-42" target="4bdUU2ATz_cRctsZ7Gmq-43">
          <mxGeometry width="50" height="50" relative="1" as="geometry">
            <mxPoint x="231" y="435" as="sourcePoint" />
            <mxPoint x="281" y="385" as="targetPoint" />
          </mxGeometry>
        </mxCell>
        <mxCell id="4bdUU2ATz_cRctsZ7Gmq-46" value="" style="edgeStyle=segmentEdgeStyle;endArrow=classic;html=1;rounded=1;endSize=8;startSize=8;" edge="1" parent="1" target="4bdUU2ATz_cRctsZ7Gmq-43">
          <mxGeometry width="50" height="50" relative="1" as="geometry">
            <mxPoint x="226" y="430" as="sourcePoint" />
            <mxPoint x="226" y="356" as="targetPoint" />
            <Array as="points">
              <mxPoint x="157" y="430" />
              <mxPoint x="157" y="333" />
            </Array>
          </mxGeometry>
        </mxCell>
        <mxCell id="4bdUU2ATz_cRctsZ7Gmq-47" value="" style="rounded=1;whiteSpace=wrap;html=1;strokeWidth=2;fillColor=none;" vertex="1" parent="1">
          <mxGeometry x="341" y="188" width="188.5" height="377" as="geometry" />
        </mxCell>
        <mxCell id="4bdUU2ATz_cRctsZ7Gmq-48" value="&lt;font style=&quot;font-size: 14px;&quot;&gt;Multi-Head&lt;br&gt;Attention&lt;/font&gt;" style="rounded=1;whiteSpace=wrap;html=1;fillColor=#FFCC99;strokeWidth=2;" vertex="1" parent="1">
          <mxGeometry x="369" y="483.00000000000006" width="104" height="43" as="geometry" />
        </mxCell>
        <mxCell id="4bdUU2ATz_cRctsZ7Gmq-49" value="&lt;font style=&quot;font-size: 14px;&quot;&gt;Add &amp;amp; Norm&lt;/font&gt;" style="rounded=1;whiteSpace=wrap;html=1;fillColor=#FFFF99;strokeWidth=2;" vertex="1" parent="1">
          <mxGeometry x="369" y="440" width="104" height="29" as="geometry" />
        </mxCell>
        <mxCell id="4bdUU2ATz_cRctsZ7Gmq-50" value="" style="edgeStyle=elbowEdgeStyle;elbow=vertical;endArrow=none;html=1;curved=0;rounded=0;endSize=8;startSize=8;endFill=0;exitX=0.5;exitY=0;exitDx=0;exitDy=0;entryX=0.5;entryY=1;entryDx=0;entryDy=0;" edge="1" parent="1" source="4bdUU2ATz_cRctsZ7Gmq-48" target="4bdUU2ATz_cRctsZ7Gmq-49">
          <mxGeometry width="50" height="50" relative="1" as="geometry">
            <mxPoint x="742" y="432" as="sourcePoint" />
            <mxPoint x="941" y="328" as="targetPoint" />
            <Array as="points" />
          </mxGeometry>
        </mxCell>
        <mxCell id="4bdUU2ATz_cRctsZ7Gmq-51" value="" style="edgeStyle=segmentEdgeStyle;endArrow=classic;html=1;curved=0;rounded=0;endSize=8;startSize=8;exitX=0.5;exitY=1;exitDx=0;exitDy=0;entryX=0.5;entryY=1;entryDx=0;entryDy=0;" edge="1" parent="1" source="4bdUU2ATz_cRctsZ7Gmq-47" target="4bdUU2ATz_cRctsZ7Gmq-48">
          <mxGeometry width="50" height="50" relative="1" as="geometry">
            <mxPoint x="411" y="525" as="sourcePoint" />
            <mxPoint x="461" y="527" as="targetPoint" />
          </mxGeometry>
        </mxCell>
        <mxCell id="4bdUU2ATz_cRctsZ7Gmq-52" value="" style="edgeStyle=segmentEdgeStyle;endArrow=classic;html=1;rounded=1;endSize=8;startSize=8;entryX=0.702;entryY=1.028;entryDx=0;entryDy=0;entryPerimeter=0;" edge="1" parent="1" target="4bdUU2ATz_cRctsZ7Gmq-48">
          <mxGeometry width="50" height="50" relative="1" as="geometry">
            <mxPoint x="421" y="565" as="sourcePoint" />
            <mxPoint x="447" y="534" as="targetPoint" />
            <Array as="points">
              <mxPoint x="421" y="549" />
              <mxPoint x="443" y="549" />
              <mxPoint x="443" y="527" />
            </Array>
          </mxGeometry>
        </mxCell>
        <mxCell id="4bdUU2ATz_cRctsZ7Gmq-53" value="" style="edgeStyle=segmentEdgeStyle;endArrow=classic;html=1;rounded=1;endSize=8;startSize=8;exitX=0.541;exitY=0.997;exitDx=0;exitDy=0;exitPerimeter=0;" edge="1" parent="1">
          <mxGeometry width="50" height="50" relative="1" as="geometry">
            <mxPoint x="420.9785" y="565.002" as="sourcePoint" />
            <mxPoint x="398" y="527" as="targetPoint" />
            <Array as="points">
              <mxPoint x="421" y="548" />
              <mxPoint x="398" y="548" />
            </Array>
          </mxGeometry>
        </mxCell>
        <mxCell id="4bdUU2ATz_cRctsZ7Gmq-55" value="&lt;font style=&quot;font-size: 14px;&quot;&gt;Multi-Head&lt;br style=&quot;border-color: var(--border-color);&quot;&gt;Attention&lt;/font&gt;" style="rounded=1;whiteSpace=wrap;html=1;fillColor=#FFCC99;strokeWidth=2;" vertex="1" parent="1">
          <mxGeometry x="369" y="362.00000000000006" width="104" height="43" as="geometry" />
        </mxCell>
        <mxCell id="4bdUU2ATz_cRctsZ7Gmq-56" value="&lt;font style=&quot;font-size: 14px;&quot;&gt;Add &amp;amp; Norm&lt;/font&gt;" style="rounded=1;whiteSpace=wrap;html=1;fillColor=#FFFF99;strokeWidth=2;" vertex="1" parent="1">
          <mxGeometry x="369" y="319" width="104" height="29" as="geometry" />
        </mxCell>
        <mxCell id="4bdUU2ATz_cRctsZ7Gmq-58" value="" style="endArrow=none;html=1;rounded=0;exitX=0.5;exitY=0;exitDx=0;exitDy=0;entryX=0.5;entryY=1;entryDx=0;entryDy=0;" edge="1" parent="1" source="4bdUU2ATz_cRctsZ7Gmq-55" target="4bdUU2ATz_cRctsZ7Gmq-56">
          <mxGeometry width="50" height="50" relative="1" as="geometry">
            <mxPoint x="426" y="435" as="sourcePoint" />
            <mxPoint x="476" y="385" as="targetPoint" />
          </mxGeometry>
        </mxCell>
        <mxCell id="4bdUU2ATz_cRctsZ7Gmq-60" value="" style="edgeStyle=elbowEdgeStyle;elbow=vertical;endArrow=classic;html=1;rounded=1;endSize=8;startSize=8;exitX=0.5;exitY=0;exitDx=0;exitDy=0;entryX=0.75;entryY=1;entryDx=0;entryDy=0;" edge="1" parent="1" source="4bdUU2ATz_cRctsZ7Gmq-49" target="4bdUU2ATz_cRctsZ7Gmq-55">
          <mxGeometry width="50" height="50" relative="1" as="geometry">
            <mxPoint x="421.85" y="435" as="sourcePoint" />
            <mxPoint x="471.85" y="385" as="targetPoint" />
          </mxGeometry>
        </mxCell>
        <mxCell id="4bdUU2ATz_cRctsZ7Gmq-67" value="" style="edgeStyle=segmentEdgeStyle;endArrow=classic;html=1;rounded=1;endSize=8;startSize=8;exitX=0.541;exitY=0.001;exitDx=0;exitDy=0;exitPerimeter=0;entryX=0.5;entryY=1;entryDx=0;entryDy=0;" edge="1" parent="1" source="4bdUU2ATz_cRctsZ7Gmq-34" target="4bdUU2ATz_cRctsZ7Gmq-55">
          <mxGeometry width="50" height="50" relative="1" as="geometry">
            <mxPoint x="272" y="295" as="sourcePoint" />
            <mxPoint x="416" y="429" as="targetPoint" />
            <Array as="points">
              <mxPoint x="226" y="295" />
              <mxPoint x="326" y="295" />
              <mxPoint x="326" y="425" />
              <mxPoint x="421" y="425" />
            </Array>
          </mxGeometry>
        </mxCell>
        <mxCell id="4bdUU2ATz_cRctsZ7Gmq-70" value="" style="edgeStyle=segmentEdgeStyle;endArrow=classic;html=1;rounded=1;endSize=8;startSize=8;entryX=0.266;entryY=1.021;entryDx=0;entryDy=0;entryPerimeter=0;" edge="1" parent="1" target="4bdUU2ATz_cRctsZ7Gmq-55">
          <mxGeometry width="50" height="50" relative="1" as="geometry">
            <mxPoint x="393" y="425" as="sourcePoint" />
            <mxPoint x="426" y="373" as="targetPoint" />
          </mxGeometry>
        </mxCell>
        <mxCell id="4bdUU2ATz_cRctsZ7Gmq-72" value="" style="edgeStyle=segmentEdgeStyle;endArrow=classic;html=1;rounded=1;endSize=8;startSize=8;" edge="1" parent="1" target="4bdUU2ATz_cRctsZ7Gmq-49">
          <mxGeometry width="50" height="50" relative="1" as="geometry">
            <mxPoint x="421" y="559" as="sourcePoint" />
            <mxPoint x="421" y="485" as="targetPoint" />
            <Array as="points">
              <mxPoint x="508" y="559" />
              <mxPoint x="508" y="453" />
            </Array>
          </mxGeometry>
        </mxCell>
        <mxCell id="4bdUU2ATz_cRctsZ7Gmq-73" value="" style="edgeStyle=segmentEdgeStyle;endArrow=classic;html=1;rounded=1;endSize=8;startSize=8;entryX=1;entryY=0.5;entryDx=0;entryDy=0;" edge="1" parent="1" target="4bdUU2ATz_cRctsZ7Gmq-56">
          <mxGeometry width="50" height="50" relative="1" as="geometry">
            <mxPoint x="421.85" y="434" as="sourcePoint" />
            <mxPoint x="483" y="327" as="targetPoint" />
            <Array as="points">
              <mxPoint x="509" y="434" />
              <mxPoint x="509" y="334" />
              <mxPoint x="483" y="334" />
            </Array>
          </mxGeometry>
        </mxCell>
        <mxCell id="4bdUU2ATz_cRctsZ7Gmq-74" value="&lt;span style=&quot;font-size: 14px;&quot;&gt;Feed Forward&lt;/span&gt;" style="rounded=1;whiteSpace=wrap;html=1;fillColor=#CCE5FF;strokeWidth=2;" vertex="1" parent="1">
          <mxGeometry x="369" y="244.00000000000006" width="104" height="43" as="geometry" />
        </mxCell>
        <mxCell id="4bdUU2ATz_cRctsZ7Gmq-75" value="&lt;font style=&quot;font-size: 14px;&quot;&gt;Add &amp;amp; Norm&lt;/font&gt;" style="rounded=1;whiteSpace=wrap;html=1;fillColor=#FFFF99;strokeWidth=2;" vertex="1" parent="1">
          <mxGeometry x="369" y="201" width="104" height="29" as="geometry" />
        </mxCell>
        <mxCell id="4bdUU2ATz_cRctsZ7Gmq-77" value="" style="edgeStyle=elbowEdgeStyle;elbow=vertical;endArrow=classic;html=1;curved=0;rounded=0;endSize=8;startSize=8;exitX=0.5;exitY=0;exitDx=0;exitDy=0;entryX=0.5;entryY=1;entryDx=0;entryDy=0;" edge="1" parent="1" source="4bdUU2ATz_cRctsZ7Gmq-56" target="4bdUU2ATz_cRctsZ7Gmq-74">
          <mxGeometry width="50" height="50" relative="1" as="geometry">
            <mxPoint x="440" y="309" as="sourcePoint" />
            <mxPoint x="490" y="259" as="targetPoint" />
          </mxGeometry>
        </mxCell>
        <mxCell id="4bdUU2ATz_cRctsZ7Gmq-78" value="" style="edgeStyle=segmentEdgeStyle;endArrow=classic;html=1;rounded=1;endSize=8;startSize=8;" edge="1" parent="1">
          <mxGeometry width="50" height="50" relative="1" as="geometry">
            <mxPoint x="421.85" y="307" as="sourcePoint" />
            <mxPoint x="474" y="215" as="targetPoint" />
            <Array as="points">
              <mxPoint x="509" y="307" />
              <mxPoint x="509" y="215" />
              <mxPoint x="474" y="215" />
            </Array>
          </mxGeometry>
        </mxCell>
        <mxCell id="4bdUU2ATz_cRctsZ7Gmq-81" value="" style="edgeStyle=elbowEdgeStyle;elbow=vertical;endArrow=none;html=1;curved=0;rounded=0;endSize=8;startSize=8;exitX=0.5;exitY=0;exitDx=0;exitDy=0;entryX=0.5;entryY=1;entryDx=0;entryDy=0;endFill=0;" edge="1" parent="1" source="4bdUU2ATz_cRctsZ7Gmq-74" target="4bdUU2ATz_cRctsZ7Gmq-75">
          <mxGeometry width="50" height="50" relative="1" as="geometry">
            <mxPoint x="425" y="240.5" as="sourcePoint" />
            <mxPoint x="475" y="190.5" as="targetPoint" />
          </mxGeometry>
        </mxCell>
        <mxCell id="4bdUU2ATz_cRctsZ7Gmq-82" value="" style="edgeStyle=elbowEdgeStyle;elbow=vertical;endArrow=none;html=1;curved=0;rounded=0;endSize=8;startSize=8;exitX=0.5;exitY=0;exitDx=0;exitDy=0;entryX=0.541;entryY=0.001;entryDx=0;entryDy=0;entryPerimeter=0;endFill=0;" edge="1" parent="1" source="4bdUU2ATz_cRctsZ7Gmq-43" target="4bdUU2ATz_cRctsZ7Gmq-34">
          <mxGeometry width="50" height="50" relative="1" as="geometry">
            <mxPoint x="218" y="326" as="sourcePoint" />
            <mxPoint x="268" y="276" as="targetPoint" />
          </mxGeometry>
        </mxCell>
        <mxCell id="4bdUU2ATz_cRctsZ7Gmq-83" value="" style="edgeStyle=elbowEdgeStyle;elbow=vertical;endArrow=classic;html=1;curved=0;rounded=0;endSize=8;startSize=8;exitX=0.5;exitY=0;exitDx=0;exitDy=0;entryX=0.5;entryY=1;entryDx=0;entryDy=0;" edge="1" parent="1" source="4bdUU2ATz_cRctsZ7Gmq-75" target="4bdUU2ATz_cRctsZ7Gmq-84">
          <mxGeometry width="50" height="50" relative="1" as="geometry">
            <mxPoint x="421.85" y="201" as="sourcePoint" />
            <mxPoint x="420" y="165" as="targetPoint" />
          </mxGeometry>
        </mxCell>
        <mxCell id="4bdUU2ATz_cRctsZ7Gmq-84" value="&lt;font style=&quot;font-size: 14px;&quot;&gt;Inverse&lt;br&gt;PCA&lt;/font&gt;" style="rounded=1;whiteSpace=wrap;html=1;strokeWidth=2;fillColor=#E5CCFF;" vertex="1" parent="1">
          <mxGeometry x="369" y="129.0000000000001" width="104" height="43" as="geometry" />
        </mxCell>
        <mxCell id="4bdUU2ATz_cRctsZ7Gmq-86" value="&lt;font style=&quot;font-size: 14px;&quot;&gt;ISTFT&lt;/font&gt;" style="rounded=1;whiteSpace=wrap;html=1;strokeWidth=2;fillColor=#CCFFFF;" vertex="1" parent="1">
          <mxGeometry x="369" y="60" width="104" height="43" as="geometry" />
        </mxCell>
        <mxCell id="4bdUU2ATz_cRctsZ7Gmq-87" value="" style="edgeStyle=elbowEdgeStyle;elbow=horizontal;endArrow=classic;html=1;curved=0;rounded=0;endSize=8;startSize=8;exitX=0.5;exitY=0;exitDx=0;exitDy=0;entryX=0.5;entryY=1;entryDx=0;entryDy=0;" edge="1" parent="1" source="4bdUU2ATz_cRctsZ7Gmq-84" target="4bdUU2ATz_cRctsZ7Gmq-86">
          <mxGeometry width="50" height="50" relative="1" as="geometry">
            <mxPoint x="412" y="120" as="sourcePoint" />
            <mxPoint x="462" y="70" as="targetPoint" />
          </mxGeometry>
        </mxCell>
        <mxCell id="4bdUU2ATz_cRctsZ7Gmq-88" value="&lt;b&gt;Predicted Waveform&lt;/b&gt;" style="text;html=1;strokeColor=none;fillColor=none;align=center;verticalAlign=middle;whiteSpace=wrap;rounded=0;fontSize=14;" vertex="1" parent="1">
          <mxGeometry x="391" y="4.000000000000114" width="60" height="30" as="geometry" />
        </mxCell>
        <mxCell id="4bdUU2ATz_cRctsZ7Gmq-89" value="" style="edgeStyle=elbowEdgeStyle;elbow=vertical;endArrow=classic;html=1;curved=0;rounded=0;endSize=8;startSize=8;exitX=0.5;exitY=0;exitDx=0;exitDy=0;entryX=0.5;entryY=1;entryDx=0;entryDy=0;" edge="1" parent="1" source="4bdUU2ATz_cRctsZ7Gmq-86" target="4bdUU2ATz_cRctsZ7Gmq-88">
          <mxGeometry width="50" height="50" relative="1" as="geometry">
            <mxPoint x="116" y="133" as="sourcePoint" />
            <mxPoint x="166" y="83" as="targetPoint" />
          </mxGeometry>
        </mxCell>
        <mxCell id="4bdUU2ATz_cRctsZ7Gmq-90" value="" style="edgeStyle=elbowEdgeStyle;elbow=vertical;endArrow=classic;html=1;curved=0;rounded=0;endSize=8;startSize=8;exitX=0.5;exitY=0;exitDx=0;exitDy=0;" edge="1" parent="1" source="DELOaJZ5ITBAGtkzzFMi-32">
          <mxGeometry width="50" height="50" relative="1" as="geometry">
            <mxPoint x="266" y="605" as="sourcePoint" />
            <mxPoint x="226" y="565" as="targetPoint" />
          </mxGeometry>
        </mxCell>
        <mxCell id="4bdUU2ATz_cRctsZ7Gmq-91" value="" style="edgeStyle=elbowEdgeStyle;elbow=vertical;endArrow=classic;html=1;curved=0;rounded=0;endSize=8;startSize=8;exitX=0.487;exitY=0.011;exitDx=0;exitDy=0;exitPerimeter=0;" edge="1" parent="1" source="4bdUU2ATz_cRctsZ7Gmq-21">
          <mxGeometry width="50" height="50" relative="1" as="geometry">
            <mxPoint x="365" y="753" as="sourcePoint" />
            <mxPoint x="421" y="565" as="targetPoint" />
          </mxGeometry>
        </mxCell>
      </root>
    </mxGraphModel>
  </diagram>
</mxfile>
